<svg width="210" height="31" viewBox="0 0 210 31" fill="none" xmlns="http://www.w3.org/2000/svg">
<path d="M1.81001 24V6.54545H8.69638C10.0202 6.54545 11.1481 6.7983 12.0799 7.30398C13.0117 7.80398 13.7219 8.5 14.2106 9.39204C14.7049 10.2784 14.9521 11.3011 14.9521 12.4602C14.9521 13.6193 14.7021 14.642 14.2021 15.5284C13.7021 16.4148 12.9776 17.1051 12.0288 17.5994C11.0856 18.0937 9.94354 18.3409 8.60263 18.3409H4.21342V15.3835H8.00604C8.71626 15.3835 9.30149 15.2614 9.76172 15.017C10.2276 14.767 10.5742 14.4233 10.8015 13.9858C11.0344 13.5426 11.1509 13.0341 11.1509 12.4602C11.1509 11.8807 11.0344 11.375 10.8015 10.9432C10.5742 10.5057 10.2276 10.1676 9.76172 9.92898C9.29581 9.68466 8.7049 9.5625 7.98899 9.5625H5.50036V24H1.81001ZM22.9847 24.2557C21.6609 24.2557 20.516 23.9744 19.5501 23.4119C18.5898 22.8437 17.8484 22.054 17.3256 21.0426C16.8029 20.0256 16.5415 18.8466 16.5415 17.5057C16.5415 16.1534 16.8029 14.9716 17.3256 13.9602C17.8484 12.9432 18.5898 12.1534 19.5501 11.5909C20.516 11.0227 21.6609 10.7386 22.9847 10.7386C24.3086 10.7386 25.4506 11.0227 26.4109 11.5909C27.3768 12.1534 28.1211 12.9432 28.6438 13.9602C29.1665 14.9716 29.4279 16.1534 29.4279 17.5057C29.4279 18.8466 29.1665 20.0256 28.6438 21.0426C28.1211 22.054 27.3768 22.8437 26.4109 23.4119C25.4506 23.9744 24.3086 24.2557 22.9847 24.2557ZM23.0018 21.4432C23.604 21.4432 24.1069 21.2727 24.5103 20.9318C24.9137 20.5852 25.2177 20.1136 25.4222 19.517C25.6325 18.9205 25.7376 18.2415 25.7376 17.4801C25.7376 16.7188 25.6325 16.0398 25.4222 15.4432C25.2177 14.8466 24.9137 14.375 24.5103 14.0284C24.1069 13.6818 23.604 13.5085 23.0018 13.5085C22.3938 13.5085 21.8825 13.6818 21.4677 14.0284C21.0586 14.375 20.7489 14.8466 20.5387 15.4432C20.3342 16.0398 20.2319 16.7188 20.2319 17.4801C20.2319 18.2415 20.3342 18.9205 20.5387 19.517C20.7489 20.1136 21.0586 20.5852 21.4677 20.9318C21.8825 21.2727 22.3938 21.4432 23.0018 21.4432ZM34.043 24L30.4805 10.9091H34.1538L36.1822 19.7045H36.3015L38.4151 10.9091H42.0202L44.168 19.6534H44.2788L46.2731 10.9091H49.9379L46.3839 24H42.5401L40.2901 15.767H40.1282L37.8782 24H34.043ZM57.5124 24.2557C56.1658 24.2557 55.0067 23.983 54.0352 23.4375C53.0692 22.8864 52.3249 22.108 51.8022 21.1023C51.2795 20.0909 51.0181 18.8949 51.0181 17.5142C51.0181 16.1676 51.2795 14.9858 51.8022 13.9688C52.3249 12.9517 53.0607 12.1591 54.0096 11.5909C54.9641 11.0227 56.0835 10.7386 57.3675 10.7386C58.2312 10.7386 59.0352 10.8778 59.7795 11.1562C60.5295 11.429 61.1829 11.8409 61.7397 12.392C62.3022 12.9432 62.7397 13.6364 63.0522 14.4716C63.3647 15.3011 63.521 16.2727 63.521 17.3864V18.3835H52.467V16.1335H60.1033C60.1033 15.6108 59.9897 15.1477 59.7624 14.7443C59.5352 14.3409 59.2198 14.0256 58.8164 13.7983C58.4187 13.5653 57.9556 13.4489 57.4272 13.4489C56.8761 13.4489 56.3874 13.5767 55.9613 13.8324C55.5408 14.0824 55.2113 14.4205 54.9727 14.8466C54.734 15.267 54.6119 15.7358 54.6062 16.2528V18.392C54.6062 19.0398 54.7255 19.5994 54.9641 20.071C55.2085 20.5426 55.5522 20.9062 55.9954 21.1619C56.4386 21.4176 56.9641 21.5455 57.5721 21.5455C57.9755 21.5455 58.3448 21.4886 58.68 21.375C59.0153 21.2614 59.3022 21.0909 59.5408 20.8636C59.7795 20.6364 59.9613 20.358 60.0863 20.0284L63.4442 20.25C63.2738 21.0568 62.9244 21.7614 62.396 22.3636C61.8732 22.9602 61.1971 23.4261 60.3675 23.7614C59.5437 24.0909 58.592 24.2557 57.5124 24.2557ZM65.8903 24V10.9091H69.4102V13.1932H69.5465C69.7852 12.3807 70.1857 11.767 70.7482 11.3523C71.3107 10.9318 71.9585 10.7216 72.6914 10.7216C72.8732 10.7216 73.0692 10.733 73.2795 10.7557C73.4897 10.7784 73.6744 10.8097 73.8335 10.8494V14.071C73.663 14.0199 73.4272 13.9744 73.1261 13.9347C72.8249 13.8949 72.5494 13.875 72.2994 13.875C71.7653 13.875 71.288 13.9915 70.8675 14.2244C70.4528 14.4517 70.1232 14.7699 69.8789 15.179C69.6403 15.5881 69.521 16.0597 69.521 16.5938V24H65.8903ZM81.0671 24.2557C79.7205 24.2557 78.5614 23.983 77.5898 23.4375C76.6239 22.8864 75.8796 22.108 75.3569 21.1023C74.8342 20.0909 74.5728 18.8949 74.5728 17.5142C74.5728 16.1676 74.8342 14.9858 75.3569 13.9688C75.8796 12.9517 76.6154 12.1591 77.5643 11.5909C78.5188 11.0227 79.6381 10.7386 80.9222 10.7386C81.7859 10.7386 82.5898 10.8778 83.3342 11.1562C84.0842 11.429 84.7376 11.8409 85.2944 12.392C85.8569 12.9432 86.2944 13.6364 86.6069 14.4716C86.9194 15.3011 87.0756 16.2727 87.0756 17.3864V18.3835H76.0217V16.1335H83.658C83.658 15.6108 83.5444 15.1477 83.3171 14.7443C83.0898 14.3409 82.7745 14.0256 82.3711 13.7983C81.9734 13.5653 81.5103 13.4489 80.9819 13.4489C80.4308 13.4489 79.9421 13.5767 79.516 13.8324C79.0955 14.0824 78.766 14.4205 78.5273 14.8466C78.2887 15.267 78.1665 15.7358 78.1609 16.2528V18.392C78.1609 19.0398 78.2802 19.5994 78.5188 20.071C78.7631 20.5426 79.1069 20.9062 79.5501 21.1619C79.9933 21.4176 80.5188 21.5455 81.1268 21.5455C81.5302 21.5455 81.8995 21.4886 82.2347 21.375C82.57 21.2614 82.8569 21.0909 83.0955 20.8636C83.3342 20.6364 83.516 20.358 83.641 20.0284L86.9989 20.25C86.8285 21.0568 86.479 21.7614 85.9506 22.3636C85.4279 22.9602 84.7518 23.4261 83.9222 23.7614C83.0984 24.0909 82.1467 24.2557 81.0671 24.2557ZM94.2688 24.2131C93.2745 24.2131 92.3739 23.9574 91.5671 23.446C90.766 22.929 90.1296 22.1705 89.658 21.1705C89.1921 20.1648 88.9592 18.9318 88.9592 17.4716C88.9592 15.9716 89.2006 14.7244 89.6836 13.7301C90.1665 12.7301 90.8086 11.983 91.6097 11.4886C92.4165 10.9886 93.3001 10.7386 94.2603 10.7386C94.9933 10.7386 95.604 10.8636 96.0927 11.1136C96.587 11.358 96.9847 11.6648 97.2859 12.0341C97.5927 12.3977 97.8256 12.7557 97.9847 13.108H98.0955V6.54545H101.718V24H98.1381V21.9034H97.9847C97.8143 22.267 97.5728 22.6278 97.2603 22.9858C96.9535 23.3381 96.5529 23.6307 96.0586 23.8636C95.57 24.0966 94.9734 24.2131 94.2688 24.2131ZM95.4194 21.3239C96.0046 21.3239 96.4989 21.1648 96.9023 20.8466C97.3114 20.5227 97.6239 20.071 97.8398 19.4915C98.0614 18.9119 98.1722 18.233 98.1722 17.4545C98.1722 16.6761 98.0643 16 97.8484 15.4261C97.6325 14.8523 97.32 14.4091 96.9109 14.0966C96.5018 13.7841 96.0046 13.6278 95.4194 13.6278C94.8228 13.6278 94.32 13.7898 93.9109 14.1136C93.5018 14.4375 93.1921 14.8864 92.9819 15.4602C92.7717 16.0341 92.6665 16.6989 92.6665 17.4545C92.6665 18.2159 92.7717 18.8892 92.9819 19.4744C93.1978 20.054 93.5075 20.5085 93.9109 20.8381C94.32 21.1619 94.8228 21.3239 95.4194 21.3239ZM110.326 24V6.54545H113.956V13.108H114.067C114.226 12.7557 114.456 12.3977 114.757 12.0341C115.064 11.6648 115.462 11.358 115.951 11.1136C116.445 10.8636 117.059 10.7386 117.792 10.7386C118.746 10.7386 119.627 10.9886 120.434 11.4886C121.24 11.983 121.885 12.7301 122.368 13.7301C122.851 14.7244 123.093 15.9716 123.093 17.4716C123.093 18.9318 122.857 20.1648 122.385 21.1705C121.919 22.1705 121.283 22.929 120.476 23.446C119.675 23.9574 118.777 24.2131 117.783 24.2131C117.078 24.2131 116.479 24.0966 115.985 23.8636C115.496 23.6307 115.096 23.3381 114.783 22.9858C114.471 22.6278 114.232 22.267 114.067 21.9034H113.905V24H110.326ZM113.88 17.4545C113.88 18.233 113.988 18.9119 114.203 19.4915C114.419 20.071 114.732 20.5227 115.141 20.8466C115.55 21.1648 116.047 21.3239 116.632 21.3239C117.223 21.3239 117.723 21.1619 118.132 20.8381C118.542 20.5085 118.851 20.054 119.061 19.4744C119.277 18.8892 119.385 18.2159 119.385 17.4545C119.385 16.6989 119.28 16.0341 119.07 15.4602C118.86 14.8864 118.55 14.4375 118.141 14.1136C117.732 13.7898 117.229 13.6278 116.632 13.6278C116.042 13.6278 115.542 13.7841 115.132 14.0966C114.729 14.4091 114.419 14.8523 114.203 15.4261C113.988 16 113.88 16.6761 113.88 17.4545ZM127.335 28.9091C126.875 28.9091 126.443 28.8722 126.039 28.7983C125.642 28.7301 125.312 28.642 125.051 28.5341L125.869 25.8239C126.295 25.9545 126.679 26.0256 127.02 26.0369C127.366 26.0483 127.664 25.9688 127.914 25.7983C128.17 25.6278 128.377 25.3381 128.537 24.929L128.75 24.375L124.054 10.9091H127.872L130.582 20.5227H130.718L133.454 10.9091H137.298L132.21 25.4148C131.966 26.1193 131.633 26.733 131.213 27.2557C130.798 27.7841 130.272 28.1903 129.636 28.4744C129 28.7642 128.233 28.9091 127.335 28.9091Z" fill="#0076B7"/>
<g clip-path="url(#clip0_77_1809)">
<path d="M157.092 28.8033C157.081 29.2099 156.963 29.6065 156.75 29.9534C156.536 30.2874 156.231 30.5534 155.87 30.7201C155.466 30.9086 155.024 31.0023 154.578 30.9942C154.223 31.0112 153.869 30.9479 153.542 30.8092C153.215 30.6705 152.923 30.4598 152.69 30.193C152.23 29.6588 152 28.9055 152 27.9331V27.6245C151.988 27.0737 152.094 26.5267 152.311 26.0202C152.499 25.5856 152.811 25.2162 153.208 24.9583C153.609 24.7028 154.077 24.5696 154.553 24.5749C155.2 24.5443 155.835 24.7578 156.331 25.1729C156.795 25.5993 157.071 26.191 157.099 26.8195H155.638C155.66 26.6733 155.647 26.524 155.6 26.3838C155.553 26.2436 155.474 26.1164 155.368 26.0126C155.263 25.9087 155.134 25.8312 154.993 25.7862C154.852 25.7412 154.703 25.7301 154.556 25.7537C154.397 25.7461 154.238 25.7825 154.098 25.8589C153.958 25.9353 153.841 26.0488 153.761 26.1869C153.591 26.4668 153.502 26.914 153.494 27.5287V27.9695C153.494 28.6353 153.576 29.1106 153.738 29.3956C153.824 29.5386 153.948 29.6546 154.097 29.7302C154.246 29.8058 154.413 29.838 154.579 29.823C154.857 29.8412 155.131 29.7543 155.348 29.5796C155.444 29.4773 155.519 29.3567 155.568 29.225C155.616 29.0933 155.638 28.9532 155.632 28.8129H157.09L157.092 28.8033Z" fill="#0076B7"/>
<path d="M162.936 27.9255C162.947 28.4812 162.834 29.0323 162.606 29.5394C162.407 29.9837 162.081 30.3597 161.669 30.6204C161.253 30.8776 160.773 31.0107 160.284 31.0038C159.799 31.0128 159.321 30.886 158.905 30.6377C158.498 30.3866 158.172 30.0231 157.967 29.5911C157.735 29.1029 157.615 28.5694 157.614 28.029V27.6782C157.603 27.122 157.715 26.5703 157.943 26.0624C158.142 25.6175 158.469 25.2414 158.882 24.9813C159.3 24.7237 159.783 24.5907 160.274 24.5979C160.761 24.5918 161.24 24.7249 161.653 24.9813C162.064 25.241 162.391 25.6138 162.594 26.0547C162.826 26.5541 162.942 27.0991 162.934 27.6494V27.937L162.936 27.9255ZM161.444 27.6629C161.444 27.0431 161.343 26.5729 161.14 26.2521C161.054 26.1009 160.927 25.9762 160.774 25.8914C160.622 25.8066 160.449 25.765 160.274 25.771C159.539 25.771 159.151 26.3365 159.108 27.4674V27.9255C159.108 28.5363 159.207 29.0059 159.404 29.3343C159.491 29.49 159.619 29.6186 159.775 29.7057C159.931 29.7927 160.107 29.8347 160.286 29.8269C160.459 29.8308 160.63 29.7877 160.781 29.7024C160.932 29.617 161.057 29.4924 161.142 29.342C161.343 29.0148 161.444 28.551 161.444 27.9504V27.6629Z" fill="#0076B7"/>
<path d="M167.058 29.7503H165.049L164.698 30.9157H163.13L165.36 24.6804H166.739L168.986 30.9157H167.411L167.058 29.7503ZM165.4 28.5906H166.708L166.053 26.4266L165.4 28.5906Z" fill="#0076B7"/>
<path d="M172.568 29.2575C172.573 29.16 172.555 29.0628 172.515 28.9736C172.476 28.8844 172.416 28.8057 172.34 28.7438C172.096 28.5745 171.826 28.4451 171.541 28.3605C171.221 28.2537 170.908 28.1256 170.606 27.9771C169.817 27.5797 169.422 27.0341 169.422 26.3402C169.417 26.0115 169.52 25.6901 169.716 25.4259C169.932 25.1473 170.22 24.9337 170.55 24.8087C170.935 24.6569 171.347 24.582 171.762 24.5883C172.166 24.5815 172.568 24.6633 172.937 24.8279C173.267 24.973 173.548 25.21 173.746 25.5102C173.94 25.8119 174.04 26.164 174.034 26.5223H172.572C172.579 26.4135 172.562 26.3045 172.523 26.2027C172.484 26.1009 172.423 26.0086 172.346 25.9319C172.175 25.7848 171.954 25.7092 171.729 25.7211C171.508 25.709 171.289 25.7718 171.109 25.8993C171.036 25.9495 170.977 26.017 170.938 26.0955C170.898 26.1741 170.878 26.2613 170.88 26.3493C170.883 26.4373 170.907 26.5234 170.951 26.5998C170.995 26.6761 171.057 26.7404 171.132 26.7868C171.403 26.966 171.7 27.1018 172.013 27.1893C172.373 27.3012 172.72 27.4509 173.049 27.6359C173.705 28.0193 174.034 28.5547 174.034 29.2422C174.045 29.4887 173.996 29.7342 173.891 29.9578C173.786 30.1814 173.629 30.3764 173.433 30.5264C173.032 30.837 172.482 30.9929 171.783 30.9941C171.32 31.0015 170.862 30.9086 170.438 30.722C170.071 30.5675 169.757 30.3081 169.536 29.9763C169.33 29.65 169.225 29.271 169.232 28.8857H170.703C170.692 29.0195 170.709 29.1542 170.753 29.2812C170.796 29.4082 170.866 29.5248 170.957 29.6236C171.191 29.803 171.484 29.8879 171.777 29.8613C171.982 29.8728 172.184 29.8162 172.353 29.7003C172.422 29.6491 172.478 29.5821 172.515 29.5051C172.552 29.428 172.571 29.3431 172.568 29.2575Z" fill="#0076B7"/>
<path d="M179.562 25.8401H177.737V30.9138H176.271V25.8401H174.479V24.6804H179.564V25.8401H179.562Z" fill="#0076B7"/>
<path d="M184.953 28.5887L185.65 24.6785H187.104L185.813 30.9137H184.3L183.486 27.36L182.688 30.9137H181.171L179.877 24.6785H181.334L182.032 28.5887L182.867 24.6785H184.108L184.953 28.5887Z" fill="#0076B7"/>
<path d="M190.951 29.7503H188.942L188.591 30.9157H187.023L189.253 24.6804H190.638L192.885 30.9157H191.31L190.951 29.7503ZM189.294 28.5887H190.602L189.945 26.4266L189.294 28.5887Z" fill="#0076B7"/>
<path d="M195.584 28.7095H194.791V30.9157H193.327V24.6785H195.72C196.441 24.6785 197.005 24.8427 197.412 25.1711C197.616 25.3389 197.777 25.5521 197.883 25.7934C197.989 26.0348 198.037 26.2976 198.023 26.5607C198.037 26.9371 197.948 27.3102 197.766 27.6399C197.572 27.9453 197.292 28.1868 196.961 28.3338L198.23 30.8505V30.9157H196.659L195.584 28.7095ZM194.791 27.5594H195.718C195.833 27.5679 195.948 27.5521 196.056 27.5131C196.165 27.4742 196.263 27.4129 196.346 27.3332C196.496 27.1589 196.571 26.9335 196.558 26.7045C196.571 26.4741 196.495 26.2475 196.344 26.072C196.262 25.9916 196.164 25.9295 196.056 25.8899C195.948 25.8502 195.833 25.8339 195.718 25.842H194.791V27.567V27.5594Z" fill="#0076B7"/>
<path d="M198.897 30.9136V24.6784H200.856C201.365 24.6733 201.866 24.8058 202.306 25.0617C202.735 25.3117 203.084 25.6788 203.311 26.1198C203.556 26.5934 203.682 27.12 203.676 27.6532V27.9407C203.684 28.4729 203.563 28.9992 203.322 29.4741C203.098 29.9149 202.753 30.2831 202.327 30.536C201.894 30.7917 201.399 30.9242 200.896 30.9194H198.897V30.9136ZM200.362 25.8399V29.7578H200.871C201.057 29.7659 201.242 29.7281 201.409 29.6479C201.577 29.5677 201.722 29.4474 201.832 29.2978C202.057 28.9911 202.17 28.5349 202.17 27.9292V27.659C202.17 27.0571 202.057 26.6034 201.832 26.298C201.718 26.1467 201.568 26.0257 201.397 25.9458C201.225 25.8659 201.036 25.8295 200.846 25.8399H200.353H200.362Z" fill="#0076B7"/>
<path d="M207.573 29.2577C207.577 29.1602 207.559 29.0629 207.519 28.9737C207.48 28.8845 207.42 28.8058 207.344 28.744C207.099 28.5745 206.829 28.445 206.543 28.3606C206.223 28.2538 205.911 28.1258 205.608 27.9773C204.819 27.5799 204.425 27.0342 204.425 26.3404C204.419 26.0116 204.522 25.6903 204.719 25.426C204.934 25.1479 205.223 24.9343 205.552 24.8088C205.938 24.6571 206.349 24.5822 206.764 24.5884C207.17 24.5805 207.572 24.6617 207.943 24.8261C208.273 24.9713 208.554 25.2082 208.752 25.5085C208.946 25.8101 209.046 26.1622 209.04 26.5205H207.578C207.583 26.4127 207.565 26.305 207.525 26.2046C207.486 26.1042 207.425 26.0133 207.348 25.9378C207.177 25.7907 206.956 25.7151 206.731 25.727C206.51 25.715 206.292 25.7778 206.111 25.9052C206.039 25.9554 205.98 26.0229 205.94 26.1014C205.9 26.1799 205.88 26.2672 205.882 26.3552C205.885 26.4432 205.909 26.5293 205.953 26.6057C205.997 26.682 206.059 26.7463 206.134 26.7927C206.405 26.9719 206.703 27.1077 207.016 27.1952C207.376 27.3071 207.723 27.4568 208.051 27.6418C208.708 28.0252 209.036 28.5606 209.036 29.2481C209.047 29.4946 208.998 29.7401 208.893 29.9637C208.789 30.1873 208.631 30.3823 208.435 30.5323C208.034 30.8429 207.484 30.9988 206.785 31C206.323 31.0074 205.864 30.9145 205.441 30.7278C205.073 30.5733 204.759 30.3139 204.538 29.9822C204.333 29.6559 204.227 29.2769 204.235 28.8916H205.706C205.695 29.0254 205.711 29.1601 205.755 29.2871C205.799 29.4141 205.868 29.5307 205.959 29.6295C206.193 29.8089 206.486 29.8938 206.779 29.8672C206.984 29.8787 207.187 29.8221 207.356 29.7062C207.426 29.6546 207.482 29.5868 207.52 29.5087C207.557 29.4306 207.576 29.3444 207.573 29.2577Z" fill="#0076B7"/>
<path d="M197.846 17.6075C197.583 17.7455 197.364 17.8644 197.157 17.964C195.734 18.6374 194.245 19.1591 192.712 19.5205L192.568 19.5569L193.913 21.282C194.429 21.9452 194.908 22.5279 195.198 22.9016H195.227H202.258L197.917 17.5481L197.846 17.6075Z" fill="#0076B7"/>
<path d="M197.072 16.7891C197.886 16.3595 198.667 15.872 199.41 15.3305C200.178 14.7729 200.905 14.1612 201.586 13.5L201.88 13.2086C196.104 6.01112 189.904 3.55382 185.694 2.76411C180.564 1.80572 176.283 2.83694 174.188 4.01384L174.151 4.03301C172.023 4.9914 169.486 5.30383 168.543 5.39392C168.514 5.61051 168.491 5.82711 168.474 6.04179C168.32 7.88956 168.579 9.57823 169.242 11.0561C170.306 13.4194 172.467 15.4455 175.494 16.9195C180.295 19.2618 186.728 19.8924 192.263 18.5698C193.7 18.2319 195.098 17.7436 196.433 17.1131C196.621 17.023 196.825 16.9195 197.072 16.7891Z" fill="#0076B7"/>
<path d="M199.944 16.4497L205.831 17.3755L202.669 14.1055L202.254 14.4984C201.836 14.8952 201.4 15.2766 200.954 15.6351L199.944 16.4497Z" fill="#0076B7"/>
<path d="M175.645 18.1922L175.513 18.1327C175.409 18.0867 175.305 18.0465 175.204 18.0043C175.102 17.9621 174.958 17.9066 174.844 17.851C171.579 16.2581 169.228 14.0519 168.066 11.4739C167.335 9.85037 167.05 8.00259 167.217 5.98615L167.26 5.51462L166.853 5.38236C166.117 5.13107 165.449 4.71391 164.901 4.16329C163.359 2.63374 161.488 1.47335 159.431 0.769488C157.374 0.0656243 155.184 -0.163372 153.026 0.0997282L152.711 0.138066L152.62 0.44092C152.344 1.38014 151.852 3.83361 153.179 6.31967C154.591 8.94373 158.284 9.90595 161.246 10.6803C162.575 11.0273 163.724 11.3263 164.256 11.6847C164.909 12.1256 165.473 12.6863 165.917 13.337C166.078 13.5747 166.207 13.7778 166.301 13.9599C167.663 16.4096 170.527 21.6615 171.226 23.0282L171.36 23.2908H178.882L175.645 18.1922ZM155.538 4.30321C155.31 4.30321 155.087 4.23577 154.898 4.1094C154.708 3.98302 154.56 3.8034 154.473 3.59326C154.386 3.38311 154.363 3.15188 154.408 2.92878C154.452 2.70569 154.562 2.50077 154.723 2.33994C154.884 2.1791 155.09 2.06956 155.313 2.02518C155.537 1.98081 155.768 2.00358 155.979 2.09063C156.189 2.17767 156.369 2.32508 156.496 2.5142C156.623 2.70333 156.69 2.92569 156.69 3.15315C156.69 3.45817 156.569 3.7507 156.353 3.96637C156.137 4.18205 155.844 4.30321 155.538 4.30321Z" fill="#0076B7"/>
</g>
<defs>
<clipPath id="clip0_77_1809">
<rect width="57.04" height="31" fill="white" transform="translate(152)"/>
</clipPath>
</defs>
</svg>
